<svg aria-hidden="true" style="position: absolute; width: 0; height: 0; overflow: hidden;" version="1.1" xmlns="http://www.w3.org/2000/svg" xmlns:xlink="http://www.w3.org/1999/xlink">
<defs>
<symbol id="arrow" viewBox="0 0 32 32">
<path  d="M18.692 6.445l8.825 8.825c0.091 0.091 0.163 0.199 0.213 0.318s0.075 0.247 0.075 0.376-0.025 0.256-0.075 0.375c-0.049 0.119-0.122 0.227-0.213 0.318l-8.825 8.825c-0.184 0.184-0.434 0.287-0.694 0.287s-0.51-0.103-0.694-0.287c-0.184-0.184-0.287-0.433-0.287-0.694s0.103-0.51 0.287-0.694l7.152-7.151h-19.206c-0.26 0-0.51-0.103-0.693-0.287s-0.287-0.433-0.287-0.693 0.103-0.509 0.287-0.693c0.184-0.184 0.433-0.287 0.693-0.287h19.206l-7.152-7.151c-0.184-0.184-0.287-0.434-0.287-0.694s0.103-0.51 0.287-0.694c0.184-0.184 0.433-0.287 0.694-0.287s0.51 0.103 0.694 0.287z"></path>
</symbol>
<symbol id="facebook" viewBox="0 0 22 32">
<path  
 stroke-linejoin="miter" stroke-linecap="butt" stroke-miterlimit="4" 
stroke-width="0.6531" d="M0.876 14.298l0.002-0.008c0.001-0.002 0.002-0.003 0.003-0.005 0.011-0.021 0.027-0.049 0.046-0.081 0.042-0.070 0.084-0.129 0.113-0.158 0.032-0.032 0.061-0.052 0.103-0.076 0.009-0.005 0.020-0.011 0.034-0.019 0.043-0.024 0.108-0.060 0.169-0.1 0.117-0.078 0.234-0.139 0.404-0.201 0.069-0.025 0.17-0.051 0.263-0.072 0.045-0.010 0.084-0.018 0.113-0.024l0.016-0.003h6.218l-0.006-0.333-0.118-6.137v-0.56l0.113-0.677 0.109-0.542 0.223-0.445 0.005-0.013 0.228-0.569 0.449-0.785 0.446-0.556 0.917-0.915 0.447-0.335 0.685-0.456 0.916-0.457 0.551-0.22 0.557-0.111 0.678-0.113 2.621-0c1.050-0 2.145-0 2.322 0 0.112 0 0.241 0.039 0.356 0.090 0.055 0.024 0.1 0.048 0.131 0.066 0.016 0.009 0.027 0.016 0.035 0.020l0.007 0.005 0 0 0.001 0 0.011 0.007 0.013 0.007 0 0 0.001 0.001 0.006 0.003c0.006 0.003 0.014 0.008 0.024 0.014 0.021 0.012 0.051 0.029 0.084 0.050 0.070 0.043 0.139 0.090 0.178 0.125 0.088 0.078 0.133 0.122 0.169 0.167 0.032 0.040 0.063 0.091 0.1 0.183l0.237 0.59c0.054 0.136 0.056 0.337-0.014 0.628-0.061 0.251-0.124 0.375-0.29 0.578-0.065 0.079-0.183 0.177-0.304 0.264-0.057 0.041-0.109 0.075-0.146 0.1-0.011 0.007-0.020 0.013-0.028 0.018l-0.661 0.22c-0.005 0.001-0.016 0.002-0.036 0.004-0.037 0.004-0.089 0.007-0.156 0.010-0.133 0.006-0.311 0.010-0.522 0.012-0.42 0.004-0.956 0.001-1.485-0.004s-1.049-0.014-1.437-0.022c-0.194-0.004-0.355-0.007-0.468-0.009l-0.212-0.005-0.647 0.129-0.763 0.254-0.657 0.393-0.028 0.028-0.614 0.613-0.018 0.027-0.485 0.725-0.009 0.018-0.508 1.014v6.898h6.479c0.001 0 0.008 0 0.023 0.004 0.016 0.004 0.037 0.010 0.063 0.021 0.053 0.021 0.118 0.055 0.191 0.1 0.145 0.092 0.301 0.221 0.431 0.361 0.229 0.247 0.324 0.392 0.396 0.683 0.061 0.249 0.048 0.392-0.005 0.692-0.075 0.43-0.136 0.639-0.384 0.889-0.115 0.116-0.26 0.214-0.402 0.281-0.148 0.071-0.262 0.094-0.313 0.094h-6.479v14.996h-3.133v-14.996l-6.177 0.004c-0.007 0.001-0.017 0.002-0.030 0.003-0.026 0.003-0.063 0.006-0.104 0.008-0.091 0.005-0.172 0.002-0.217-0.008-0.093-0.021-0.13-0.044-0.219-0.101-0.040-0.025-0.089-0.057-0.159-0.098-0.028-0.016-0.047-0.035-0.066-0.059-0.008-0.010-0.014-0.018-0.022-0.029-0.004-0.006-0.010-0.013-0.017-0.022l-0.001-0.001c-0.013-0.017-0.044-0.058-0.086-0.094v0c-0.037-0.031-0.073-0.067-0.11-0.105-0.016-0.016-0.030-0.032-0.044-0.047l-0.008-0.009c-0.011-0.011-0.022-0.024-0.034-0.036-0.002-0.006-0.006-0.013-0.010-0.024-0.002-0.004-0.004-0.009-0.006-0.016-0.006-0.016-0.015-0.039-0.022-0.056-0.011-0.026-0.029-0.065-0.053-0.104-0.005-0.007-0.010-0.016-0.017-0.026-0.027-0.042-0.068-0.105-0.108-0.175-0.024-0.043-0.043-0.080-0.055-0.109-0.002-0.006-0.004-0.011-0.006-0.014-0.001-0.036-0.002-0.083-0.004-0.132-0.001-0.044-0.003-0.089-0.004-0.128-0.003-0.115-0.002-0.209 0.005-0.26v0l0.001-0.008c0.024-0.18 0.034-0.249 0.091-0.372 0.037-0.080 0.072-0.187 0.094-0.261 0.012-0.040 0.023-0.075 0.030-0.101zM0.946 16.094c0 0-0-0-0.001-0.001 0.001 0.001 0.001 0.001 0.001 0.001z"></path>
</symbol>
<symbol id="insta" viewBox="0 0 32 32">
<path   d="M16 8.839c-1.416 0-2.801 0.42-3.978 1.207s-2.095 1.905-2.637 3.214c-0.542 1.309-0.684 2.748-0.408 4.137s0.958 2.665 1.96 3.666c1.001 1.002 2.277 1.683 3.666 1.96s2.829 0.134 4.137-0.407c1.308-0.542 2.427-1.46 3.214-2.637s1.207-2.562 1.207-3.978c-0.002-1.899-0.757-3.719-2.099-5.061s-3.163-2.098-5.061-2.099zM16 20.774c-0.944 0-1.867-0.28-2.652-0.805s-1.397-1.27-1.758-2.142-0.456-1.832-0.272-2.758c0.184-0.926 0.639-1.777 1.307-2.444s1.518-1.122 2.444-1.307c0.926-0.184 1.886-0.090 2.758 0.272s1.618 0.973 2.142 1.758c0.524 0.785 0.805 1.708 0.805 2.652 0 1.266-0.503 2.48-1.398 3.376s-2.109 1.398-3.376 1.398zM23.161 0.485h-14.322c-2.215 0.002-4.339 0.883-5.905 2.45s-2.447 3.69-2.45 5.905v14.322c0.002 2.215 0.883 4.339 2.45 5.905s3.69 2.447 5.905 2.45h14.322c2.215-0.002 4.339-0.883 5.905-2.45s2.447-3.69 2.45-5.905v-14.322c-0.002-2.215-0.883-4.339-2.45-5.905s-3.69-2.447-5.905-2.45zM29.128 23.161c0 1.583-0.629 3.101-1.748 4.22s-2.637 1.748-4.22 1.748h-14.322c-1.583 0-3.1-0.629-4.22-1.748s-1.748-2.637-1.748-4.22v-14.322c0-1.583 0.629-3.1 1.748-4.22s2.637-1.748 4.22-1.748h14.322c1.583 0 3.101 0.629 4.22 1.748s1.748 2.637 1.748 4.22v14.322zM25.548 8.242c0 0.354-0.105 0.7-0.302 0.995s-0.476 0.524-0.803 0.659c-0.327 0.136-0.687 0.171-1.034 0.102s-0.666-0.24-0.917-0.49-0.421-0.569-0.49-0.917c-0.069-0.347-0.034-0.707 0.102-1.034s0.365-0.607 0.659-0.803 0.641-0.302 0.995-0.302c0.475 0 0.93 0.189 1.266 0.524s0.524 0.791 0.524 1.266z"></path>
</symbol>
<symbol id="telegram" viewBox="0 0 36 32">
<path   d="M35.371 0.35c-0.195-0.171-0.433-0.285-0.688-0.329s-0.516-0.017-0.756 0.078l-31.946 12.69c-0.453 0.179-0.836 0.502-1.092 0.921s-0.371 0.911-0.328 1.402c0.043 0.491 0.242 0.955 0.568 1.321s0.759 0.615 1.236 0.71l8.277 1.65v9.368c-0.002 0.51 0.148 1.009 0.429 1.432s0.681 0.751 1.148 0.94c0.466 0.193 0.978 0.24 1.471 0.133s0.942-0.361 1.29-0.73l3.991-4.202 6.332 5.626c0.457 0.411 1.046 0.639 1.657 0.64 0.268-0 0.534-0.043 0.788-0.126 0.416-0.134 0.79-0.376 1.085-0.703s0.501-0.726 0.597-1.158l6.398-28.253c0.057-0.255 0.045-0.521-0.035-0.769s-0.226-0.47-0.42-0.641zM25.733 6.11l-14.122 10.266-7.819-1.557 21.941-8.709zM13.163 28.16v-7.597l3.908 3.478-3.908 4.119zM26.961 29.44l-13.033-11.6 18.758-13.647-5.725 25.247z"></path>
</symbol>
<symbol id="icon-nav-btn" viewBox="0 0 32 32">
<path d="M28 16c0 0.265-0.105 0.52-0.293 0.707s-0.442 0.293-0.707 0.293h-22c-0.265 0-0.52-0.105-0.707-0.293s-0.293-0.442-0.293-0.707c0-0.265 0.105-0.52 0.293-0.707s0.442-0.293 0.707-0.293h22c0.265 0 0.52 0.105 0.707 0.293s0.293 0.442 0.293 0.707zM5 9h22c0.265 0 0.52-0.105 0.707-0.293s0.293-0.442 0.293-0.707c0-0.265-0.105-0.52-0.293-0.707s-0.442-0.293-0.707-0.293h-22c-0.265 0-0.52 0.105-0.707 0.293s-0.293 0.442-0.293 0.707c0 0.265 0.105 0.52 0.293 0.707s0.442 0.293 0.707 0.293zM27 23h-22c-0.265 0-0.52 0.105-0.707 0.293s-0.293 0.442-0.293 0.707c0 0.265 0.105 0.52 0.293 0.707s0.442 0.293 0.707 0.293h22c0.265 0 0.52-0.105 0.707-0.293s0.293-0.442 0.293-0.707c0-0.265-0.105-0.52-0.293-0.707s-0.442-0.293-0.707-0.293z"></path>
</symbol>
</defs>
</svg>
