<svg width="55" height="55" viewBox="0 0 55 55" fill="none" xmlns="http://www.w3.org/2000/svg">
<path d="M32.1263 11.0778L47.2948 26.2464C47.4515 26.4029 47.5758 26.5888 47.6607 26.7934C47.7455 26.998 47.7891 27.2173 47.7891 27.4388C47.7891 27.6603 47.7455 27.8796 47.6607 28.0842C47.5758 28.2888 47.4515 28.4747 47.2948 28.6312L32.1263 43.7997C31.81 44.116 31.3811 44.2936 30.9339 44.2936C30.4866 44.2936 30.0577 44.116 29.7415 43.7997C29.4252 43.4835 29.2475 43.0546 29.2475 42.6073C29.2475 42.1601 29.4252 41.7311 29.7415 41.4149L42.0343 29.1242H9.02377C8.57678 29.1242 8.14809 28.9466 7.83202 28.6305C7.51595 28.3145 7.33838 27.8858 7.33838 27.4388C7.33838 26.9918 7.51595 26.5631 7.83202 26.247C8.14809 25.9309 8.57678 25.7534 9.02377 25.7534L42.0343 25.7534L29.7415 13.4626C29.4252 13.1464 29.2475 12.7175 29.2475 12.2702C29.2475 11.823 29.4252 11.3941 29.7415 11.0778C30.0577 10.7616 30.4866 10.5839 30.9339 10.5839C31.3811 10.5839 31.81 10.7616 32.1263 11.0778Z" fill="#5E4AE3"/>
</svg>
