<svg width="1129" height="134" viewBox="0 0 1129 134" fill="none" xmlns="http://www.w3.org/2000/svg">
<path d="M114.425 86.5154C112.266 101.504 106.329 113.196 96.6136 121.589C87.0182 129.863 74.6042 134 59.3715 134C41.1403 134 26.6872 128.004 16.0123 116.013C5.33744 103.902 0 87.5946 0 67.0899C0 47.9042 5.33744 31.9562 16.0123 19.2456C26.8071 6.41521 41.68 0 60.6309 0C73.9445 0 85.6989 3.53736 95.894 10.6121C106.209 17.6868 112.086 27.5195 113.525 40.1101H96.4337C94.3947 32.0761 90.1367 25.8407 83.6598 21.404C77.3029 16.8474 69.5066 14.5691 60.2711 14.5691C47.7971 14.5691 37.9618 18.5262 30.7652 26.4403C23.6886 34.2345 19.3707 44.3069 17.8114 56.6577H79.3419V70.8671H17.0918C17.8114 85.9758 21.9495 97.847 29.5058 106.481C37.1822 115.114 47.3773 119.431 60.0912 119.431C70.2863 119.431 78.5623 116.613 84.9192 110.977C91.2762 105.341 95.4142 97.1875 97.3333 86.5154H114.425Z" fill="#010F1D"/>
<path d="M135.597 2.87786H188.312C201.386 2.87786 211.761 5.87562 219.437 11.8711C227.113 17.7468 230.951 27.0398 230.951 39.7503C230.951 65.5311 216.378 78.4215 187.232 78.4215H152.509V130.942H135.597V2.87786ZM152.509 17.447V64.2121H185.073C194.189 64.2121 201.266 62.5333 206.303 59.1758C211.461 55.6984 214.04 49.583 214.04 40.8295C214.04 35.9132 213.2 31.8362 211.521 28.5987C209.962 25.3611 207.623 22.9629 204.504 21.404C201.386 19.8452 198.147 18.8259 194.789 18.3463C191.43 17.7468 187.412 17.447 182.735 17.447H152.509Z" fill="#010F1D"/>
<path d="M249.921 2.87786H273.31L314.51 111.337L354.271 2.87786H377.84V130.942H361.827V24.102L321.707 130.942H306.954L266.113 24.102V130.942H249.921V2.87786Z" fill="#010F1D"/>
<path d="M634.011 2.87786V130.942H617.099V17.6268H569.782L567.263 89.753C566.784 103.183 564.025 113.855 558.987 121.769C554.07 129.683 546.933 133.64 537.578 133.64C533.739 133.64 529.661 132.801 525.344 131.122V116.733C527.263 117.932 530.321 118.532 534.519 118.532C537.997 118.532 540.756 117.752 542.795 116.193C544.954 114.515 546.813 110.797 548.372 105.042C550.052 99.2859 551.011 91.2519 551.251 80.9396L553.59 2.87786H634.011Z" fill="#010F1D"/>
<path d="M714.715 2.87786L764.731 130.942H745.84L731.627 91.7315H677.833L663.26 130.942H645.269L695.644 2.87786H714.715ZM726.59 78.2416L704.82 19.0658L682.691 78.2416H726.59Z" fill="#010F1D"/>
<path d="M883.373 86.5154C881.214 101.504 875.277 113.196 865.562 121.589C855.966 129.863 843.552 134 828.32 134C810.088 134 795.635 128.004 784.96 116.013C774.285 103.902 768.948 87.5946 768.948 67.0899C768.948 47.9042 774.285 31.9562 784.96 19.2456C795.755 6.41521 810.628 0 829.579 0C842.892 0 854.647 3.53736 864.842 10.6121C875.157 17.6868 881.034 27.5195 882.474 40.1101H865.382C863.343 32.0761 859.085 25.8407 852.608 21.404C846.251 16.8474 838.455 14.5691 829.219 14.5691C816.745 14.5691 806.91 18.5262 799.713 26.4403C792.637 34.2345 788.319 44.3069 786.759 56.6577H848.29V70.8671H786.04C786.759 85.9758 790.897 97.847 798.454 106.481C806.13 115.114 816.325 119.431 829.039 119.431C839.234 119.431 847.51 116.613 853.867 110.977C860.224 105.341 864.362 97.1875 866.281 86.5154H883.373Z" fill="#010F1D"/>
<path d="M903.826 2.87786H958.519C970.274 2.87786 979.989 5.45593 987.665 10.6121C995.462 15.7682 999.36 23.8622 999.36 34.894C999.36 41.2492 997.621 46.945 994.142 51.9812C990.784 56.8975 986.226 60.3749 980.469 62.4134C988.385 64.2121 994.442 67.9293 998.64 73.5651C1002.96 79.2009 1005.12 86.2756 1005.12 94.7893C1005.12 118.891 988.925 130.942 956.54 130.942H903.826V2.87786ZM920.378 17.2671V57.7369H950.783C954.261 57.7369 957.2 57.677 959.599 57.557C962.118 57.3172 964.936 56.8376 968.055 56.1181C971.173 55.3987 973.632 54.3794 975.431 53.0604C977.35 51.6215 978.97 49.583 980.289 46.945C981.728 44.3069 982.448 41.1293 982.448 37.4121C982.448 33.6949 981.848 30.5772 980.649 28.0591C979.449 25.421 978.01 23.4425 976.331 22.1235C974.652 20.6846 972.313 19.6054 969.314 18.8859C966.435 18.1664 963.797 17.7468 961.398 17.6268C959.119 17.387 956.12 17.2671 952.402 17.2671H920.378ZM920.378 71.047V116.733H954.201C958.399 116.733 961.818 116.673 964.456 116.553C967.095 116.313 970.034 115.774 973.272 114.934C976.631 114.095 979.269 112.896 981.188 111.337C983.107 109.658 984.727 107.32 986.046 104.322C987.365 101.204 988.025 97.4873 988.025 93.1705C988.025 89.5732 987.545 86.4555 986.586 83.8174C985.746 81.1794 984.247 79.081 982.088 77.5221C980.049 75.9633 978.07 74.7043 976.151 73.745C974.352 72.7857 971.713 72.1262 968.235 71.7664C964.756 71.4067 962.058 71.2268 960.139 71.2268C958.219 71.1069 955.281 71.047 951.323 71.047H920.378Z" fill="#010F1D"/>
<path d="M1078.98 2.87786L1129 130.942H1110.11L1095.9 91.7315H1042.1L1027.53 130.942H1009.54L1059.91 2.87786H1078.98ZM1090.86 78.2416L1069.09 19.0658L1046.96 78.2416H1090.86Z" fill="#010F1D"/>
<path d="M114.425 86.5154C112.266 101.504 106.329 113.196 96.6136 121.589C87.0182 129.863 74.6042 134 59.3715 134C41.1403 134 26.6872 128.004 16.0123 116.013C5.33744 103.902 0 87.5946 0 67.0899C0 47.9042 5.33744 31.9562 16.0123 19.2456C26.8071 6.41521 41.68 0 60.6309 0C73.9445 0 85.6989 3.53736 95.894 10.6121C106.209 17.6868 112.086 27.5195 113.525 40.1101H96.4337C94.3947 32.0761 90.1367 25.8407 83.6598 21.404C77.3029 16.8474 69.5066 14.5691 60.2711 14.5691C47.7971 14.5691 37.9618 18.5262 30.7652 26.4403C23.6886 34.2345 19.3707 44.3069 17.8114 56.6577H79.3419V70.8671H17.0918C17.8114 85.9758 21.9495 97.847 29.5058 106.481C37.1822 115.114 47.3773 119.431 60.0912 119.431C70.2863 119.431 78.5623 116.613 84.9192 110.977C91.2762 105.341 95.4142 97.1875 97.3333 86.5154H114.425Z" fill="#010F1D"/>
<path d="M135.597 2.87786H188.312C201.386 2.87786 211.761 5.87562 219.437 11.8711C227.113 17.7468 230.951 27.0398 230.951 39.7503C230.951 65.5311 216.378 78.4215 187.232 78.4215H152.509V130.942H135.597V2.87786ZM152.509 17.447V64.2121H185.073C194.189 64.2121 201.266 62.5333 206.303 59.1758C211.461 55.6984 214.04 49.583 214.04 40.8295C214.04 35.9132 213.2 31.8362 211.521 28.5987C209.962 25.3611 207.623 22.9629 204.504 21.404C201.386 19.8452 198.147 18.8259 194.789 18.3463C191.43 17.7468 187.412 17.447 182.735 17.447H152.509Z" fill="#010F1D"/>
<path d="M249.921 2.87786H273.31L314.51 111.337L354.271 2.87786H377.84V130.942H361.827V24.102L321.707 130.942H306.954L266.113 24.102V130.942H249.921V2.87786Z" fill="#010F1D"/>
<path d="M634.011 2.87786V130.942H617.099V17.6268H569.782L567.263 89.753C566.784 103.183 564.025 113.855 558.987 121.769C554.07 129.683 546.933 133.64 537.578 133.64C533.739 133.64 529.661 132.801 525.344 131.122V116.733C527.263 117.932 530.321 118.532 534.519 118.532C537.997 118.532 540.756 117.752 542.795 116.193C544.954 114.515 546.813 110.797 548.372 105.042C550.052 99.2859 551.011 91.2519 551.251 80.9396L553.59 2.87786H634.011Z" fill="#010F1D"/>
<path d="M714.715 2.87786L764.731 130.942H745.84L731.627 91.7315H677.833L663.26 130.942H645.269L695.644 2.87786H714.715ZM726.59 78.2416L704.82 19.0658L682.691 78.2416H726.59Z" fill="#010F1D"/>
<path d="M883.373 86.5154C881.214 101.504 875.277 113.196 865.562 121.589C855.966 129.863 843.552 134 828.32 134C810.088 134 795.635 128.004 784.96 116.013C774.285 103.902 768.948 87.5946 768.948 67.0899C768.948 47.9042 774.285 31.9562 784.96 19.2456C795.755 6.41521 810.628 0 829.579 0C842.892 0 854.647 3.53736 864.842 10.6121C875.157 17.6868 881.034 27.5195 882.474 40.1101H865.382C863.343 32.0761 859.085 25.8407 852.608 21.404C846.251 16.8474 838.455 14.5691 829.219 14.5691C816.745 14.5691 806.91 18.5262 799.713 26.4403C792.637 34.2345 788.319 44.3069 786.759 56.6577H848.29V70.8671H786.04C786.759 85.9758 790.897 97.847 798.454 106.481C806.13 115.114 816.325 119.431 829.039 119.431C839.234 119.431 847.51 116.613 853.867 110.977C860.224 105.341 864.362 97.1875 866.281 86.5154H883.373Z" fill="#010F1D"/>
<path d="M903.826 2.87786H958.519C970.274 2.87786 979.989 5.45593 987.665 10.6121C995.462 15.7682 999.36 23.8622 999.36 34.894C999.36 41.2492 997.621 46.945 994.142 51.9812C990.784 56.8975 986.226 60.3749 980.469 62.4134C988.385 64.2121 994.442 67.9293 998.64 73.5651C1002.96 79.2009 1005.12 86.2756 1005.12 94.7893C1005.12 118.891 988.925 130.942 956.54 130.942H903.826V2.87786ZM920.378 17.2671V57.7369H950.783C954.261 57.7369 957.2 57.677 959.599 57.557C962.118 57.3172 964.936 56.8376 968.055 56.1181C971.173 55.3987 973.632 54.3794 975.431 53.0604C977.35 51.6215 978.97 49.583 980.289 46.945C981.728 44.3069 982.448 41.1293 982.448 37.4121C982.448 33.6949 981.848 30.5772 980.649 28.0591C979.449 25.421 978.01 23.4425 976.331 22.1235C974.652 20.6846 972.313 19.6054 969.314 18.8859C966.435 18.1664 963.797 17.7468 961.398 17.6268C959.119 17.387 956.12 17.2671 952.402 17.2671H920.378ZM920.378 71.047V116.733H954.201C958.399 116.733 961.818 116.673 964.456 116.553C967.095 116.313 970.034 115.774 973.272 114.934C976.631 114.095 979.269 112.896 981.188 111.337C983.107 109.658 984.727 107.32 986.046 104.322C987.365 101.204 988.025 97.4873 988.025 93.1705C988.025 89.5732 987.545 86.4555 986.586 83.8174C985.746 81.1794 984.247 79.081 982.088 77.5221C980.049 75.9633 978.07 74.7043 976.151 73.745C974.352 72.7857 971.713 72.1262 968.235 71.7664C964.756 71.4067 962.058 71.2268 960.139 71.2268C958.219 71.1069 955.281 71.047 951.323 71.047H920.378Z" fill="#010F1D"/>
<path d="M1078.98 2.87786L1129 130.942H1110.11L1095.9 91.7315H1042.1L1027.53 130.942H1009.54L1059.91 2.87786H1078.98ZM1090.86 78.2416L1069.09 19.0658L1046.96 78.2416H1090.86Z" fill="#010F1D"/>
<path d="M452.88 43.8L475.28 5.4C484.987 7.96 493.601 12.6533 501.123 19.48C508.641 26.3067 514.107 34.4133 517.52 43.8H452.88ZM435.12 59.8L413.2 21.4C418.96 15.7467 425.654 11.2667 433.283 7.96C440.908 4.65333 449.147 3 458 3C459.387 3 460.987 3.07893 462.8 3.2368C464.613 3.39893 466.267 3.58667 467.76 3.8L435.12 59.8ZM396.08 83C395.44 80.44 394.934 77.8267 394.563 75.16C394.188 72.4933 394 69.7733 394 67C394 59.4267 395.227 52.28 397.68 45.56C400.133 38.84 403.6 32.7067 408.08 27.16L440.4 83H396.08ZM440.88 128.6C431.173 126.04 422.533 121.347 414.96 114.52C407.387 107.693 401.893 99.5867 398.48 90.2H462.96L440.88 128.6ZM458 131C456.4 131 454.774 130.893 453.123 130.68C451.468 130.467 449.893 130.253 448.4 130.04L480.88 74.2L502.8 112.6C497.04 118.253 490.348 122.733 482.723 126.04C475.094 129.347 466.853 131 458 131ZM507.92 106.84L475.6 51H519.92C520.56 53.56 521.068 56.1733 521.443 58.84C521.814 61.5067 522 64.2267 522 67C522 74.4667 520.694 81.6133 518.083 88.44C515.468 95.2667 512.08 101.4 507.92 106.84Z" fill="#010F1D"/>
</svg>
