<svg width="89" height="89" viewBox="0 0 89 89" fill="none" xmlns="http://www.w3.org/2000/svg">
<rect width="89" height="89" rx="44.5" fill="white"/>
<path d="M29.3412 41.8945L29.3445 41.8829C29.3457 41.8806 29.347 41.8782 29.3483 41.8757C29.3655 41.844 29.39 41.8 29.4192 41.7515C29.4836 41.6444 29.5483 41.5533 29.5928 41.509C29.6422 41.4596 29.6858 41.4295 29.7499 41.3924C29.7633 41.3846 29.7811 41.3748 29.802 41.3632C29.8685 41.3263 29.967 41.2716 30.0601 41.2097C30.2386 41.0909 30.4182 40.9966 30.6789 40.9016C30.7839 40.8634 30.9386 40.8239 31.0817 40.792C31.1502 40.7767 31.211 40.7643 31.2544 40.7558L31.2794 40.751H40.2918H40.8015L40.7917 40.2413L40.6106 30.844V29.9862L40.7836 28.9502L40.95 28.1198L41.2823 27.4565L41.2917 27.4379L41.2994 27.4186L41.6488 26.5468L42.3369 25.3451L43.0199 24.4931L43.7251 23.7894L44.4247 23.0913L45.1099 22.5784L45.6418 22.2245L46.1595 21.8801L46.8564 21.5324L47.5626 21.18L48.4066 20.8431L49.2597 20.6728L50.2981 20.5001H51.1628V20.0001L51.1628 20.5001H51.1631H51.1639L51.1672 20.5001L51.1805 20.5001L51.2321 20.5001L51.4285 20.5001L52.1338 20.5001L54.3108 20.5C55.919 20.5 57.5947 20.5 57.8664 20.5001C58.0377 20.5002 58.2354 20.5601 58.4113 20.6381C58.4949 20.6751 58.5646 20.7123 58.6126 20.7396C58.6365 20.7532 58.6545 20.7641 58.6656 20.771L58.6768 20.7781L58.6769 20.7781L58.677 20.7782L58.6772 20.7783L58.6775 20.7785L58.6779 20.7788L58.6783 20.7791L58.6955 20.7905L58.7149 20.801L58.7149 20.801L58.715 20.8011L58.715 20.8011L58.7151 20.8011L58.717 20.8022L58.7263 20.8073C58.7348 20.812 58.7476 20.8192 58.7637 20.8284C58.7961 20.847 58.8413 20.8734 58.8916 20.9044C58.9992 20.9708 59.1037 21.0423 59.1642 21.0963C59.2983 21.216 59.3682 21.2825 59.4234 21.352C59.4724 21.4136 59.5199 21.491 59.5766 21.6326L59.939 22.5367C60.0224 22.7446 60.0251 23.0523 59.9171 23.4988C59.8241 23.8833 59.7274 24.0733 59.4727 24.3845C59.3732 24.506 59.192 24.6554 59.0073 24.7881C58.9201 24.8508 58.8407 24.9037 58.7833 24.9408C58.7669 24.9515 58.7523 24.9608 58.74 24.9686L57.7281 25.3052C57.7209 25.3062 57.7036 25.3087 57.673 25.3117C57.6158 25.3172 57.5361 25.3225 57.4339 25.3271C57.2303 25.3364 56.957 25.3424 56.6349 25.3457C55.9918 25.3522 55.1713 25.3479 54.3609 25.3391C53.5512 25.3302 52.7544 25.317 52.1598 25.306C51.8626 25.3005 51.616 25.2955 51.4438 25.292L51.2442 25.2877L51.1918 25.2866L51.1785 25.2863L51.1751 25.2862L51.1743 25.2862L51.1741 25.2862L51.1628 25.7861L51.174 25.2862L51.1189 25.285L51.0649 25.2957L50.159 25.4765L50.1285 25.4826L50.099 25.4924L49.0119 25.8541L48.9599 25.8714L48.9129 25.8995L48.007 26.442L47.9542 26.4736L47.9106 26.517L47.0047 27.4211L46.9697 27.4561L46.9421 27.4972L46.2174 28.5821L46.2001 28.608L46.1861 28.6359L45.4614 30.0824L45.4084 30.1881V30.3064V40.251V40.751H45.9084H55.33C55.3311 40.751 55.3421 40.7516 55.3645 40.7568C55.3888 40.7624 55.4211 40.7723 55.4615 40.7883C55.543 40.8206 55.6423 40.8718 55.7533 40.942C55.9759 41.0829 56.2145 41.2808 56.4126 41.4947C56.7632 41.8734 56.9091 42.0952 57.0187 42.5402C57.1125 42.9213 57.0924 43.14 57.0117 43.6C56.8963 44.2579 56.8037 44.579 56.4243 44.9617C56.248 45.1396 56.0256 45.2888 55.8085 45.3924C55.5816 45.5006 55.4075 45.5369 55.33 45.5369H45.9084H45.4084V46.0369V68.5H40.6106V46.0369V45.5369H40.1106H31.2326H31.1986L31.1654 45.5415L31.1653 45.5415L31.1652 45.5415L31.1651 45.5415L31.165 45.5415L31.1649 45.5415L31.1633 45.5418L31.1525 45.5431C31.1423 45.5443 31.1267 45.5462 31.1068 45.5482C31.0668 45.5523 31.0107 45.5573 30.9477 45.5606C30.8087 45.5679 30.6844 45.564 30.6161 45.5488C30.4731 45.5171 30.4169 45.4813 30.2803 45.3944C30.2197 45.3558 30.1433 45.3072 30.0364 45.2443C29.9936 45.2191 29.9646 45.1906 29.935 45.1539C29.9219 45.1379 29.9134 45.1264 29.901 45.1098C29.8941 45.1006 29.8861 45.0898 29.8754 45.0757L29.8739 45.0737C29.8542 45.0477 29.8067 44.9849 29.7418 44.9305L29.4206 45.3137L29.7418 44.9305C29.6858 44.8836 29.6296 44.828 29.5732 44.769C29.5495 44.7441 29.5275 44.7205 29.5051 44.6965L29.4922 44.6827C29.4761 44.6654 29.4583 44.6464 29.4405 44.6278C29.4366 44.6193 29.4315 44.6073 29.4247 44.5903C29.4223 44.5844 29.4189 44.576 29.415 44.5662C29.4051 44.5413 29.3916 44.5072 29.3805 44.4812C29.3638 44.4417 29.3368 44.3814 29.2987 44.3216C29.2914 44.3102 29.2826 44.2966 29.2726 44.2812C29.2308 44.2167 29.168 44.1198 29.108 44.0139C29.0711 43.9488 29.0419 43.8916 29.0233 43.8477C29.0195 43.8388 29.0166 43.8315 29.0145 43.8258C29.0135 43.7711 29.011 43.6985 29.0084 43.6233C29.006 43.5565 29.0036 43.4876 29.0022 43.4275C28.9979 43.2515 28.9997 43.1081 29.0102 43.0297L29.0102 43.0297L29.0118 43.0175L28.5163 42.951L29.0118 43.0175C29.0488 42.7417 29.0644 42.6366 29.1508 42.4478C29.2069 42.3251 29.2603 42.1619 29.2953 42.0486C29.314 41.988 29.33 41.9337 29.3412 41.8945ZM29.4486 44.6446C29.4486 44.6446 29.4482 44.6439 29.4475 44.6425C29.4483 44.6439 29.4487 44.6446 29.4486 44.6446Z" fill="#5E4AE3" stroke="white"/>
</svg>
