<svg width="33" height="49" viewBox="0 0 33 49" fill="none" xmlns="http://www.w3.org/2000/svg">
<path d="M1.34117 21.8945L1.34445 21.8829C1.3457 21.8806 1.34699 21.8782 1.34834 21.8757C1.36547 21.844 1.39001 21.8 1.41918 21.7515C1.4836 21.6444 1.54831 21.5533 1.59275 21.509C1.64216 21.4596 1.68578 21.4295 1.74988 21.3924C1.76329 21.3846 1.78106 21.3748 1.80202 21.3632C1.86846 21.3263 1.96696 21.2716 2.06007 21.2097C2.23861 21.0909 2.41817 20.9966 2.67892 20.9016C2.78385 20.8634 2.93863 20.8239 3.0817 20.792C3.15023 20.7767 3.21095 20.7643 3.2544 20.7558L3.27942 20.751H12.2918H12.8015L12.7917 20.2413L12.6106 10.844V9.98619L12.7836 8.95018L12.95 8.11981L13.2823 7.45653L13.2917 7.43791L13.2994 7.41858L13.6488 6.54679L14.3369 5.34512L15.0199 4.49311L15.7251 3.78943L16.4247 3.09128L17.1099 2.57843L17.6418 2.2245L18.1595 1.8801L18.8564 1.53236L19.5626 1.18001L20.4066 0.84308L21.2597 0.672813L22.2981 0.500098H23.1628V9.76526e-05L23.1628 0.500098H23.1631H23.1639L23.1672 0.500098L23.1805 0.500097L23.2321 0.500095L23.4285 0.500089L24.1338 0.500067L26.3108 0.500015C27.919 0.499988 29.5947 0.499988 29.8664 0.500098C30.0377 0.500167 30.2354 0.560087 30.4113 0.638076C30.4949 0.675141 30.5646 0.712285 30.6126 0.739648C30.6365 0.75323 30.6545 0.764132 30.6656 0.771036L30.6768 0.778094L30.6769 0.778143L30.677 0.778215L30.6772 0.778327L30.6775 0.778528L30.6779 0.778836L30.6783 0.77908L30.6955 0.790476L30.7149 0.801012L30.7149 0.801045L30.715 0.801087L30.715 0.801114L30.7151 0.801146L30.717 0.802204L30.7263 0.807327C30.7348 0.812029 30.7476 0.8192 30.7637 0.828429C30.7961 0.846976 30.8413 0.873368 30.8916 0.904383C30.9992 0.970817 31.1037 1.04228 31.1642 1.0963C31.2983 1.21602 31.3682 1.28252 31.4234 1.35195C31.4724 1.41363 31.5199 1.49104 31.5766 1.63261L31.939 2.53667C32.0224 2.74458 32.0251 3.05228 31.9171 3.49878C31.8241 3.88327 31.7274 4.07334 31.4727 4.38448C31.3732 4.50604 31.192 4.65538 31.0073 4.78813C30.9201 4.85081 30.8407 4.90372 30.7833 4.94084C30.7669 4.95151 30.7523 4.9608 30.74 4.96859L29.7281 5.30518C29.7209 5.30624 29.7036 5.3087 29.673 5.31167C29.6158 5.31722 29.5361 5.32248 29.4339 5.32713C29.2303 5.33638 28.957 5.34238 28.6349 5.34567C27.9918 5.35223 27.1713 5.34787 26.3609 5.33905C25.5512 5.33024 24.7544 5.31703 24.1598 5.30601C23.8626 5.3005 23.616 5.29554 23.4438 5.29196L23.2442 5.28773L23.1918 5.28659L23.1785 5.28629L23.1751 5.28621L23.1743 5.2862L23.1741 5.28619L23.1628 5.78606L23.174 5.28619L23.1189 5.28495L23.0649 5.29573L22.159 5.47655L22.1285 5.48263L22.099 5.49244L21.0119 5.85406L20.9599 5.87136L20.9129 5.89952L20.007 6.44195L19.9542 6.47356L19.9106 6.51702L19.0047 7.42107L18.9697 7.45606L18.9421 7.49725L18.2174 8.58212L18.2001 8.60803L18.1861 8.63589L17.4614 10.0824L17.4084 10.1881V10.3064V20.251V20.751H17.9084H27.33C27.3311 20.751 27.3421 20.7516 27.3645 20.7568C27.3888 20.7624 27.4211 20.7723 27.4615 20.7883C27.543 20.8206 27.6423 20.8718 27.7533 20.942C27.9759 21.0829 28.2145 21.2808 28.4126 21.4947C28.7632 21.8734 28.9091 22.0952 29.0187 22.5402C29.1125 22.9213 29.0924 23.14 29.0117 23.6C28.8963 24.2579 28.8037 24.579 28.4243 24.9617C28.248 25.1396 28.0256 25.2888 27.8085 25.3924C27.5816 25.5006 27.4075 25.5369 27.33 25.5369H17.9084H17.4084V26.0369V48.5H12.6106V26.0369V25.5369H12.1106H3.23258H3.19858L3.16542 25.5415L3.16531 25.5415L3.16523 25.5415L3.16508 25.5415L3.16499 25.5415L3.16489 25.5415L3.1633 25.5418L3.15245 25.5431C3.14233 25.5443 3.12673 25.5462 3.10684 25.5482C3.06677 25.5523 3.01074 25.5573 2.94774 25.5606C2.80866 25.5679 2.68442 25.564 2.6161 25.5488C2.47306 25.5171 2.41689 25.4813 2.28029 25.3944C2.2197 25.3558 2.14328 25.3072 2.03642 25.2443C1.9936 25.2191 1.96464 25.1906 1.93495 25.1539C1.92194 25.1379 1.91336 25.1264 1.90103 25.1098C1.89414 25.1006 1.88608 25.0898 1.87543 25.0757L1.87394 25.0737C1.85421 25.0477 1.80667 24.9849 1.74181 24.9305L1.4206 25.3137L1.74181 24.9305C1.68583 24.8836 1.62958 24.828 1.5732 24.769C1.54948 24.7441 1.52747 24.7205 1.50506 24.6965L1.49224 24.6827C1.4761 24.6654 1.45832 24.6464 1.44045 24.6278C1.43663 24.6193 1.43151 24.6073 1.42465 24.5903C1.42226 24.5844 1.41892 24.576 1.41502 24.5662C1.40512 24.5413 1.39158 24.5072 1.38055 24.4812C1.36379 24.4417 1.33684 24.3814 1.29873 24.3216C1.29145 24.3102 1.28264 24.2966 1.27262 24.2812C1.23082 24.2167 1.16803 24.1198 1.10803 24.0139C1.07114 23.9488 1.0419 23.8916 1.02325 23.8477C1.01947 23.8388 1.01661 23.8315 1.01448 23.8258C1.01348 23.7711 1.01096 23.6985 1.00835 23.6233C1.00603 23.5565 1.00364 23.4876 1.00219 23.4275C0.997934 23.2515 0.999656 23.1081 1.01018 23.0297L1.01019 23.0297L1.01182 23.0175L0.516264 22.951L1.01182 23.0175C1.04884 22.7417 1.06444 22.6366 1.15077 22.4478C1.20686 22.3251 1.26026 22.1619 1.2953 22.0486C1.31405 21.988 1.32995 21.9337 1.34117 21.8945ZM1.44865 24.6446C1.44863 24.6446 1.44824 24.6439 1.44749 24.6425C1.44828 24.6439 1.44866 24.6446 1.44865 24.6446Z" fill="#5E4AE3" stroke="white"/>
</svg>
