<svg width="33" height="33" viewBox="0 0 33 33" fill="none" xmlns="http://www.w3.org/2000/svg">
<path d="M16.5 9.11539C15.0395 9.11539 13.6117 9.54849 12.3973 10.3599C11.1829 11.1713 10.2364 12.3247 9.67751 13.674C9.11858 15.0234 8.97234 16.5082 9.25728 17.9407C9.54222 19.3731 10.2455 20.689 11.2783 21.7217C12.311 22.7545 13.6269 23.4578 15.0593 23.7427C16.4918 24.0277 17.9766 23.8814 19.326 23.3225C20.6753 22.7636 21.8287 21.8171 22.6401 20.6027C23.4515 19.3883 23.8846 17.9605 23.8846 16.5C23.8826 14.5421 23.1039 12.665 21.7195 11.2805C20.335 9.8961 18.4579 9.11742 16.5 9.11539ZM16.5 21.4231C15.5263 21.4231 14.5745 21.1343 13.7649 20.5934C12.9553 20.0524 12.3243 19.2836 11.9517 18.384C11.5791 17.4844 11.4816 16.4945 11.6715 15.5396C11.8615 14.5846 12.3304 13.7074 13.0189 13.0189C13.7074 12.3304 14.5846 11.8615 15.5396 11.6715C16.4945 11.4816 17.4844 11.5791 18.384 11.9517C19.2836 12.3243 20.0524 12.9553 20.5934 13.7649C21.1343 14.5745 21.4231 15.5263 21.4231 16.5C21.4231 17.8057 20.9044 19.0579 19.9811 19.9811C19.0579 20.9044 17.8057 21.4231 16.5 21.4231ZM23.8846 0.5H9.11539C6.83119 0.502443 4.64126 1.41092 3.02609 3.02609C1.41092 4.64126 0.502443 6.83119 0.5 9.11539V23.8846C0.502443 26.1688 1.41092 28.3587 3.02609 29.9739C4.64126 31.5891 6.83119 32.4976 9.11539 32.5H23.8846C26.1688 32.4976 28.3587 31.5891 29.9739 29.9739C31.5891 28.3587 32.4976 26.1688 32.5 23.8846V9.11539C32.4976 6.83119 31.5891 4.64126 29.9739 3.02609C28.3587 1.41092 26.1688 0.502443 23.8846 0.5ZM30.0385 23.8846C30.0385 25.5167 29.3901 27.082 28.236 28.236C27.082 29.3901 25.5167 30.0385 23.8846 30.0385H9.11539C7.48328 30.0385 5.91803 29.3901 4.76396 28.236C3.60989 27.082 2.96154 25.5167 2.96154 23.8846V9.11539C2.96154 7.48328 3.60989 5.91803 4.76396 4.76396C5.91803 3.60989 7.48328 2.96154 9.11539 2.96154H23.8846C25.5167 2.96154 27.082 3.60989 28.236 4.76396C29.3901 5.91803 30.0385 7.48328 30.0385 9.11539V23.8846ZM26.3462 8.5C26.3462 8.86514 26.2379 9.22207 26.035 9.52567C25.8322 9.82927 25.5438 10.0659 25.2065 10.2056C24.8692 10.3454 24.498 10.3819 24.1398 10.3107C23.7817 10.2394 23.4528 10.0636 23.1946 9.80543C22.9364 9.54724 22.7606 9.21829 22.6893 8.86017C22.6181 8.50205 22.6546 8.13085 22.7944 7.79351C22.9341 7.45617 23.1707 7.16784 23.4743 6.96498C23.7779 6.76212 24.1349 6.65385 24.5 6.65385C24.9896 6.65385 25.4592 6.84835 25.8054 7.19457C26.1516 7.54079 26.3462 8.01037 26.3462 8.5Z" fill="#5E4AE3"/>
</svg>
