<svg width="89" height="89" viewBox="0 0 89 89" fill="none" xmlns="http://www.w3.org/2000/svg">
<rect width="89" height="89" rx="44.5" fill="white"/>
<path d="M44.5 37.1154C43.0395 37.1154 41.6117 37.5485 40.3973 38.3599C39.1829 39.1713 38.2364 40.3247 37.6775 41.674C37.1186 43.0234 36.9723 44.5082 37.2573 45.9407C37.5422 47.3731 38.2455 48.689 39.2783 49.7217C40.311 50.7545 41.6269 51.4578 43.0593 51.7427C44.4918 52.0277 45.9766 51.8814 47.326 51.3225C48.6753 50.7636 49.8287 49.8171 50.6401 48.6027C51.4515 47.3883 51.8846 45.9605 51.8846 44.5C51.8826 42.5421 51.1039 40.665 49.7195 39.2805C48.335 37.8961 46.4579 37.1174 44.5 37.1154ZM44.5 49.4231C43.5263 49.4231 42.5745 49.1343 41.7649 48.5934C40.9553 48.0524 40.3243 47.2836 39.9517 46.384C39.5791 45.4844 39.4816 44.4945 39.6715 43.5396C39.8615 42.5846 40.3304 41.7074 41.0189 41.0189C41.7074 40.3304 42.5846 39.8615 43.5396 39.6715C44.4945 39.4816 45.4844 39.5791 46.384 39.9517C47.2836 40.3243 48.0524 40.9553 48.5934 41.7649C49.1343 42.5745 49.4231 43.5263 49.4231 44.5C49.4231 45.8057 48.9044 47.0579 47.9811 47.9811C47.0579 48.9044 45.8057 49.4231 44.5 49.4231ZM51.8846 28.5H37.1154C34.8312 28.5024 32.6413 29.4109 31.0261 31.0261C29.4109 32.6413 28.5024 34.8312 28.5 37.1154V51.8846C28.5024 54.1688 29.4109 56.3587 31.0261 57.9739C32.6413 59.5891 34.8312 60.4976 37.1154 60.5H51.8846C54.1688 60.4976 56.3587 59.5891 57.9739 57.9739C59.5891 56.3587 60.4976 54.1688 60.5 51.8846V37.1154C60.4976 34.8312 59.5891 32.6413 57.9739 31.0261C56.3587 29.4109 54.1688 28.5024 51.8846 28.5ZM58.0385 51.8846C58.0385 53.5167 57.3901 55.082 56.236 56.236C55.082 57.3901 53.5167 58.0385 51.8846 58.0385H37.1154C35.4833 58.0385 33.918 57.3901 32.764 56.236C31.6099 55.082 30.9615 53.5167 30.9615 51.8846V37.1154C30.9615 35.4833 31.6099 33.918 32.764 32.764C33.918 31.6099 35.4833 30.9615 37.1154 30.9615H51.8846C53.5167 30.9615 55.082 31.6099 56.236 32.764C57.3901 33.918 58.0385 35.4833 58.0385 37.1154V51.8846ZM54.3462 36.5C54.3462 36.8651 54.2379 37.2221 54.035 37.5257C53.8322 37.8293 53.5438 38.0659 53.2065 38.2056C52.8692 38.3454 52.498 38.3819 52.1398 38.3107C51.7817 38.2394 51.4528 38.0636 51.1946 37.8054C50.9364 37.5472 50.7606 37.2183 50.6893 36.8602C50.6181 36.502 50.6546 36.1308 50.7944 35.7935C50.9341 35.4562 51.1707 35.1678 51.4743 34.965C51.7779 34.7621 52.1349 34.6538 52.5 34.6538C52.9896 34.6538 53.4592 34.8484 53.8054 35.1946C54.1516 35.5408 54.3462 36.0104 54.3462 36.5Z" fill="#5E4AE3"/>
</svg>
