<svg width="89" height="30" viewBox="0 0 89 30" fill="none" xmlns="http://www.w3.org/2000/svg">
<path fill-rule="evenodd" clip-rule="evenodd" d="M5.48523 0L15.1477 25.4073L24.4726 0H30V30H26.2447V4.97191L16.8354 30H13.3755L3.79747 4.97191V30H0V0H5.48523ZM45.164 9.5625L50.414 0.5625C52.689 1.1625 54.708 2.2625 56.471 3.8625C58.233 5.4625 59.514 7.3625 60.314 9.5625H45.164ZM41.0015 13.3125L35.864 4.3125C37.214 2.9875 38.783 1.9375 40.571 1.1625C42.358 0.3875 44.289 0 46.364 0C46.689 0 47.064 0.0184999 47.489 0.0554999C47.914 0.0934999 48.3015 0.1375 48.6515 0.1875L41.0015 13.3125ZM31.8515 18.75C31.7015 18.15 31.583 17.5375 31.496 16.9125C31.408 16.2875 31.364 15.65 31.364 15C31.364 13.225 31.6515 11.55 32.2265 9.975C32.8015 8.4 33.614 6.9625 34.664 5.6625L42.239 18.75H31.8515ZM42.3515 29.4375C40.0765 28.8375 38.0515 27.7375 36.2765 26.1375C34.5015 24.5375 33.214 22.6375 32.414 20.4375H47.5265L42.3515 29.4375ZM46.364 30C45.989 30 45.608 29.975 45.221 29.925C44.833 29.875 44.464 29.825 44.114 29.775L51.7265 16.6875L56.864 25.6875C55.514 27.0125 53.9455 28.0625 52.1585 28.8375C50.3705 29.6125 48.439 30 46.364 30ZM58.064 24.3375L50.489 11.25H60.8765C61.0265 11.85 61.1455 12.4625 61.2335 13.0875C61.3205 13.7125 61.364 14.35 61.364 15C61.364 16.75 61.058 18.425 60.446 20.025C59.833 21.625 59.039 23.0625 58.064 24.3375ZM84.3161 27.2215C86.487 25.3423 87.8137 22.7248 88.2961 19.3691H84.4769C84.0481 21.7584 83.1235 23.5839 81.703 24.8456C80.2826 26.1074 78.4333 26.7383 76.1552 26.7383C73.3143 26.7383 71.0362 25.7718 69.321 23.8389C67.6325 21.906 66.7079 19.2483 66.5471 15.8658H80.4568V12.6846H66.7079C67.0563 9.91946 68.0211 7.66443 69.6024 5.91946C71.2104 4.14765 73.4081 3.26175 76.1954 3.26175C78.2591 3.26175 80.0012 3.77181 81.4216 4.79195C82.8689 5.78523 83.8203 7.18121 84.2759 8.97987H88.0951C87.7735 6.16107 86.4602 3.95973 84.1553 2.37584C81.8772 0.791946 79.2507 0 76.2758 0C72.0413 0 68.7179 1.43624 66.3058 4.30872C63.9206 7.15436 62.7279 10.7248 62.7279 15.0201C62.7279 19.6107 63.9206 23.2617 66.3058 25.9732C68.6911 28.6577 71.9207 30 75.9944 30C79.3981 30 82.1721 29.0738 84.3161 27.2215Z" fill="#010F1D"/>
</svg>
