<svg width="736" height="128" viewBox="0 0 736 128" fill="none" xmlns="http://www.w3.org/2000/svg">
<path d="M0 0H23.4089L64.6447 108.404L104.44 0H128.029V128H112.003V21.2135L71.8474 128H57.0818L16.2062 21.2135V128H0V0Z" fill="#010F1D"/>
<path d="M206.916 0L256.975 128H238.068L223.842 88.809H170.002L155.416 128H137.409L187.829 0H206.916ZM218.8 75.3258L197.012 16.1798L174.864 75.3258H218.8Z" fill="#010F1D"/>
<path d="M266.958 0H319.718C332.803 0 343.187 2.99625 350.87 8.98876C358.552 14.8614 362.394 24.1498 362.394 36.8539C362.394 62.6217 347.808 75.5056 318.637 75.5056H283.884V128H266.958V0ZM283.884 14.5618V61.3034H316.476C325.6 61.3034 332.683 59.6255 337.725 56.2697C342.886 52.794 345.467 46.6816 345.467 37.9326C345.467 33.0187 344.627 28.9438 342.947 25.7079C341.386 22.4719 339.045 20.0749 335.924 18.5168C332.803 16.9588 329.561 15.9401 326.2 15.4607C322.839 14.8614 318.817 14.5618 314.136 14.5618H283.884Z" fill="#010F1D"/>
<path d="M379.399 128V0H396.326V108.404H396.686L459.53 0H480.958V128H464.032V19.236H463.671L400.647 128H379.399Z" fill="#010F1D"/>
<path d="M607.309 0V128H590.382V68.1348H522.676V128H505.75V0H522.676V53.3933H590.382V0H607.309Z" fill="#010F1D"/>
<path d="M685.941 0L736 128H717.093L702.867 88.809H649.027L634.441 128H616.434L666.854 0H685.941ZM697.825 75.3258L676.037 16.1798L653.889 75.3258H697.825Z" fill="#010F1D"/>
<path d="M0 0H23.4089L64.6447 108.404L104.44 0H128.029V128H112.003V21.2135L71.8474 128H57.0818L16.2062 21.2135V128H0V0Z" fill="#010F1D"/>
<path d="M206.916 0L256.975 128H238.068L223.842 88.809H170.002L155.416 128H137.409L187.829 0H206.916ZM218.8 75.3258L197.012 16.1798L174.864 75.3258H218.8Z" fill="#010F1D"/>
<path d="M266.958 0H319.718C332.803 0 343.187 2.99625 350.87 8.98876C358.552 14.8614 362.394 24.1498 362.394 36.8539C362.394 62.6217 347.808 75.5056 318.637 75.5056H283.884V128H266.958V0ZM283.884 14.5618V61.3034H316.476C325.6 61.3034 332.683 59.6255 337.725 56.2697C342.886 52.794 345.467 46.6816 345.467 37.9326C345.467 33.0187 344.627 28.9438 342.947 25.7079C341.386 22.4719 339.045 20.0749 335.924 18.5168C332.803 16.9588 329.561 15.9401 326.2 15.4607C322.839 14.8614 318.817 14.5618 314.136 14.5618H283.884Z" fill="#010F1D"/>
<path d="M379.399 128V0H396.326V108.404H396.686L459.53 0H480.958V128H464.032V19.236H463.671L400.647 128H379.399Z" fill="#010F1D"/>
<path d="M607.309 0V128H590.382V68.1348H522.676V128H505.75V0H522.676V53.3933H590.382V0H607.309Z" fill="#010F1D"/>
<path d="M685.941 0L736 128H717.093L702.867 88.809H649.027L634.441 128H616.434L666.854 0H685.941ZM697.825 75.3258L676.037 16.1798L653.889 75.3258H697.825Z" fill="#010F1D"/>
</svg>
