<svg width="945" height="134" viewBox="0 0 945 134" fill="none" xmlns="http://www.w3.org/2000/svg">
<path d="M128.82 66.4611C128.82 82.2681 123.423 94.4227 112.628 102.925C101.833 111.307 88.5788 115.499 72.8661 115.499V130.946H55.9539V115.499C40.3612 115.499 27.1074 111.188 16.1925 102.566C5.39749 93.9437 0 81.9088 0 66.4611C0 51.0134 5.45746 38.8588 16.3724 29.9973C27.2873 21.0161 40.4811 16.5255 55.9539 16.5255V3.05362H72.8661V16.5255C88.5788 16.5255 101.833 20.9562 112.628 29.8177C123.423 38.6792 128.82 50.8937 128.82 66.4611ZM111.728 66.4611C111.728 55.0849 108.13 46.403 100.933 40.4156C93.8563 34.3083 84.5006 30.9553 72.8661 30.3566V101.668C84.7405 100.829 94.1562 97.5961 101.113 91.9678C108.19 86.2198 111.728 77.7176 111.728 66.4611ZM55.9539 101.668V30.3566C44.3194 30.9553 34.9037 34.3083 27.7071 40.4156C20.6304 46.403 17.092 55.0849 17.092 66.4611C17.092 77.7176 20.5704 86.2198 27.5272 91.9678C34.6039 97.5961 44.0795 100.829 55.9539 101.668Z" fill="#89909F"/>
<path d="M201.024 0C220.455 0 235.568 6.10724 246.363 18.3217C257.158 30.4164 262.555 46.2833 262.555 65.9223C262.555 85.681 257.218 101.967 246.543 114.78C235.868 127.593 220.755 134 201.204 134C191.249 134 182.313 132.204 174.396 128.611C166.48 125.019 160.003 120.049 154.965 113.702C150.048 107.356 146.27 100.111 143.631 91.9678C141.112 83.8248 139.853 75.0232 139.853 65.563C139.853 45.5648 145.37 29.6381 156.405 17.7828C167.56 5.92761 182.433 0 201.024 0ZM201.024 14.7292C186.751 14.7292 175.776 19.7587 168.099 29.8177C160.543 39.7569 156.765 52.0912 156.765 66.8204C156.765 82.8668 160.783 95.6801 168.819 105.26C176.975 114.72 187.83 119.45 201.384 119.45C214.818 119.45 225.553 114.66 233.589 105.08C241.625 95.5005 245.643 82.7471 245.643 66.8204C245.643 51.0134 241.565 38.3798 233.409 28.9196C225.373 19.4593 214.578 14.7292 201.024 14.7292Z" fill="#89909F"/>
<path d="M367.66 3.05362V17.7828H324.66V130.946H307.748V17.7828H264.748V3.05362H367.66Z" fill="#89909F"/>
<path d="M431.106 0C450.537 0 465.65 6.10724 476.445 18.3217C487.24 30.4164 492.637 46.2833 492.637 65.9223C492.637 85.681 487.3 101.967 476.625 114.78C465.95 127.593 450.837 134 431.286 134C421.33 134 412.395 132.204 404.478 128.611C396.562 125.019 390.085 120.049 385.047 113.702C380.13 107.356 376.351 100.111 373.713 91.9678C371.194 83.8248 369.934 75.0232 369.934 65.563C369.934 45.5648 375.452 29.6381 386.487 17.7828C397.642 5.92761 412.515 0 431.106 0ZM431.106 14.7292C416.833 14.7292 405.858 19.7587 398.181 29.8177C390.625 39.7569 386.847 52.0912 386.847 66.8204C386.847 82.8668 390.865 95.6801 398.901 105.26C407.057 114.72 417.912 119.45 431.466 119.45C444.9 119.45 455.634 114.66 463.671 105.08C471.707 95.5005 475.725 82.7471 475.725 66.8204C475.725 51.0134 471.647 38.3798 463.491 28.9196C455.455 19.4593 444.66 14.7292 431.106 14.7292Z" fill="#89909F"/>
<path d="M528.938 130.946H512.026V3.05362H596.227V17.7828H528.938V130.946Z" fill="#89909F"/>
<path d="M609.338 3.05362H662.054C675.128 3.05362 685.503 6.04736 693.179 12.0348C700.856 17.9026 704.694 27.1832 704.694 39.8767C704.694 65.6229 690.121 78.496 660.974 78.496H626.25V130.946H609.338V3.05362ZM626.25 17.6032V64.3056H658.815C667.931 64.3056 675.008 62.6291 680.045 59.2761C685.203 55.8034 687.782 49.6962 687.782 40.9544C687.782 36.0447 686.942 31.9732 685.263 28.74C683.704 25.5067 681.365 23.1117 678.246 21.555C675.128 19.9982 671.889 18.9803 668.531 18.5013C665.172 17.9026 661.154 17.6032 656.476 17.6032H626.25Z" fill="#89909F"/>
<path d="M763.926 3.05362L813.942 130.946H795.051L780.838 91.7882H727.043L712.47 130.946H694.478L744.854 3.05362H763.926ZM775.8 78.3164L754.03 19.2198L731.901 78.3164H775.8Z" fill="#89909F"/>
<path d="M945 66.4611C945 82.2681 939.603 94.4227 928.808 102.925C918.013 111.307 904.759 115.499 889.046 115.499V130.946H872.134V115.499C856.541 115.499 843.287 111.188 832.372 102.566C821.578 93.9437 816.18 81.9088 816.18 66.4611C816.18 51.0134 821.637 38.8588 832.552 29.9973C843.467 21.0161 856.661 16.5255 872.134 16.5255V3.05362H889.046V16.5255C904.759 16.5255 918.013 20.9562 928.808 29.8177C939.603 38.6792 945 50.8937 945 66.4611ZM927.908 66.4611C927.908 55.0849 924.31 46.403 917.113 40.4156C910.036 34.3083 900.681 30.9553 889.046 30.3566V101.668C900.921 100.829 910.336 97.5961 917.293 91.9678C924.37 86.2198 927.908 77.7176 927.908 66.4611ZM872.134 101.668V30.3566C860.499 30.9553 851.084 34.3083 843.887 40.4156C836.81 46.403 833.272 55.0849 833.272 66.4611C833.272 77.7176 836.75 86.2198 843.707 91.9678C850.784 97.5961 860.259 100.829 872.134 101.668Z" fill="#89909F"/>
<path d="M128.82 66.4611C128.82 82.2681 123.423 94.4227 112.628 102.925C101.833 111.307 88.5788 115.499 72.8661 115.499V130.946H55.9539V115.499C40.3612 115.499 27.1074 111.188 16.1925 102.566C5.39749 93.9437 0 81.9088 0 66.4611C0 51.0134 5.45746 38.8588 16.3724 29.9973C27.2873 21.0161 40.4811 16.5255 55.9539 16.5255V3.05362H72.8661V16.5255C88.5788 16.5255 101.833 20.9562 112.628 29.8177C123.423 38.6792 128.82 50.8937 128.82 66.4611ZM111.728 66.4611C111.728 55.0849 108.13 46.403 100.933 40.4156C93.8563 34.3083 84.5006 30.9553 72.8661 30.3566V101.668C84.7405 100.829 94.1562 97.5961 101.113 91.9678C108.19 86.2198 111.728 77.7176 111.728 66.4611ZM55.9539 101.668V30.3566C44.3194 30.9553 34.9037 34.3083 27.7071 40.4156C20.6304 46.403 17.092 55.0849 17.092 66.4611C17.092 77.7176 20.5704 86.2198 27.5272 91.9678C34.6039 97.5961 44.0795 100.829 55.9539 101.668Z" fill="#89909F"/>
<path d="M201.024 0C220.455 0 235.568 6.10724 246.363 18.3217C257.158 30.4164 262.555 46.2833 262.555 65.9223C262.555 85.681 257.218 101.967 246.543 114.78C235.868 127.593 220.755 134 201.204 134C191.249 134 182.313 132.204 174.396 128.611C166.48 125.019 160.003 120.049 154.965 113.702C150.048 107.356 146.27 100.111 143.631 91.9678C141.112 83.8248 139.853 75.0232 139.853 65.563C139.853 45.5648 145.37 29.6381 156.405 17.7828C167.56 5.92761 182.433 0 201.024 0ZM201.024 14.7292C186.751 14.7292 175.776 19.7587 168.099 29.8177C160.543 39.7569 156.765 52.0912 156.765 66.8204C156.765 82.8668 160.783 95.6801 168.819 105.26C176.975 114.72 187.83 119.45 201.384 119.45C214.818 119.45 225.553 114.66 233.589 105.08C241.625 95.5005 245.643 82.7471 245.643 66.8204C245.643 51.0134 241.565 38.3798 233.409 28.9196C225.373 19.4593 214.578 14.7292 201.024 14.7292Z" fill="#89909F"/>
<path d="M367.66 3.05362V17.7828H324.66V130.946H307.748V17.7828H264.748V3.05362H367.66Z" fill="#89909F"/>
<path d="M431.106 0C450.537 0 465.65 6.10724 476.445 18.3217C487.24 30.4164 492.637 46.2833 492.637 65.9223C492.637 85.681 487.3 101.967 476.625 114.78C465.95 127.593 450.837 134 431.286 134C421.33 134 412.395 132.204 404.478 128.611C396.562 125.019 390.085 120.049 385.047 113.702C380.13 107.356 376.351 100.111 373.713 91.9678C371.194 83.8248 369.934 75.0232 369.934 65.563C369.934 45.5648 375.452 29.6381 386.487 17.7828C397.642 5.92761 412.515 0 431.106 0ZM431.106 14.7292C416.833 14.7292 405.858 19.7587 398.181 29.8177C390.625 39.7569 386.847 52.0912 386.847 66.8204C386.847 82.8668 390.865 95.6801 398.901 105.26C407.057 114.72 417.912 119.45 431.466 119.45C444.9 119.45 455.634 114.66 463.671 105.08C471.707 95.5005 475.725 82.7471 475.725 66.8204C475.725 51.0134 471.647 38.3798 463.491 28.9196C455.455 19.4593 444.66 14.7292 431.106 14.7292Z" fill="#89909F"/>
<path d="M528.938 130.946H512.026V3.05362H596.227V17.7828H528.938V130.946Z" fill="#89909F"/>
<path d="M609.338 3.05362H662.054C675.128 3.05362 685.503 6.04736 693.179 12.0348C700.856 17.9026 704.694 27.1832 704.694 39.8767C704.694 65.6229 690.121 78.496 660.974 78.496H626.25V130.946H609.338V3.05362ZM626.25 17.6032V64.3056H658.815C667.931 64.3056 675.008 62.6291 680.045 59.2761C685.203 55.8034 687.782 49.6962 687.782 40.9544C687.782 36.0447 686.942 31.9732 685.263 28.74C683.704 25.5067 681.365 23.1117 678.246 21.555C675.128 19.9982 671.889 18.9803 668.531 18.5013C665.172 17.9026 661.154 17.6032 656.476 17.6032H626.25Z" fill="#89909F"/>
<path d="M763.926 3.05362L813.942 130.946H795.051L780.838 91.7882H727.043L712.47 130.946H694.478L744.854 3.05362H763.926ZM775.8 78.3164L754.03 19.2198L731.901 78.3164H775.8Z" fill="#89909F"/>
<path d="M945 66.4611C945 82.2681 939.603 94.4227 928.808 102.925C918.013 111.307 904.759 115.499 889.046 115.499V130.946H872.134V115.499C856.541 115.499 843.287 111.188 832.372 102.566C821.578 93.9437 816.18 81.9088 816.18 66.4611C816.18 51.0134 821.637 38.8588 832.552 29.9973C843.467 21.0161 856.661 16.5255 872.134 16.5255V3.05362H889.046V16.5255C904.759 16.5255 918.013 20.9562 928.808 29.8177C939.603 38.6792 945 50.8937 945 66.4611ZM927.908 66.4611C927.908 55.0849 924.31 46.403 917.113 40.4156C910.036 34.3083 900.681 30.9553 889.046 30.3566V101.668C900.921 100.829 910.336 97.5961 917.293 91.9678C924.37 86.2198 927.908 77.7176 927.908 66.4611ZM872.134 101.668V30.3566C860.499 30.9553 851.084 34.3083 843.887 40.4156C836.81 46.403 833.272 55.0849 833.272 66.4611C833.272 77.7176 836.75 86.2198 843.707 91.9678C850.784 97.5961 860.259 100.829 872.134 101.668Z" fill="#89909F"/>
</svg>
