<svg width="354" height="95" viewBox="0 0 354 95" fill="none" xmlns="http://www.w3.org/2000/svg">
<path d="M91.5645 47.118C91.5645 58.3244 87.728 66.9415 80.055 72.9692C72.382 78.912 62.9612 81.8834 51.7927 81.8834V92.8351H39.7717V81.8834C28.6885 81.8834 19.2678 78.8271 11.5095 72.7145C3.8365 66.6019 0 58.0697 0 47.118C0 36.1662 3.87913 27.5491 11.6374 21.2668C19.3956 14.8995 28.7737 11.7158 39.7717 11.7158V2.16488H51.7927V11.7158C62.9612 11.7158 72.382 14.857 80.055 21.1394C87.728 27.4218 91.5645 36.0813 91.5645 47.118ZM79.4155 47.118C79.4155 39.0527 76.8579 32.8977 71.7425 28.6528C66.7125 24.3231 60.0625 21.9459 51.7927 21.5215V72.0777C60.233 71.4835 66.9256 69.1912 71.8704 65.2011C76.9005 61.126 79.4155 55.0983 79.4155 47.118ZM39.7717 72.0777V21.5215C31.5019 21.9459 24.8094 24.3231 19.694 28.6528C14.664 32.8977 12.1489 39.0527 12.1489 47.118C12.1489 55.0983 14.6213 61.126 19.5661 65.2011C24.5962 69.1912 31.3314 71.4835 39.7717 72.0777Z" fill="#010F1D"/>
<path d="M144.165 0C157.977 0 168.719 4.32976 176.392 12.9893C184.065 21.5639 187.902 32.8128 187.902 46.7359C187.902 60.744 184.108 72.29 176.52 81.374C168.932 90.458 158.19 95 144.293 95C137.217 95 130.866 93.7265 125.239 91.1796C119.612 88.6327 115.008 85.1095 111.427 80.6099C107.932 76.1104 105.246 70.9741 103.371 65.2011C101.58 59.4281 100.685 53.1881 100.685 46.4812C100.685 32.3034 104.607 21.0121 112.45 12.6072C120.379 4.20241 130.951 0 144.165 0ZM144.165 10.4424C134.02 10.4424 126.219 14.008 120.763 21.1394C115.392 28.1859 112.706 36.9303 112.706 47.3727C112.706 58.7489 115.562 67.8329 121.274 74.6247C127.072 81.3315 134.787 84.685 144.421 84.685C153.97 84.685 161.6 81.2891 167.312 74.4973C173.024 67.7055 175.881 58.664 175.881 47.3727C175.881 36.1662 172.982 27.2096 167.184 20.5027C161.472 13.7958 153.799 10.4424 144.165 10.4424Z" fill="#010F1D"/>
<path d="M263.888 2.16488V12.6072H233.324V92.8351H221.303V12.6072H190.739V2.16488H263.888Z" fill="#010F1D"/>
<path d="M310.264 0C324.075 0 334.818 4.32976 342.491 12.9893C350.164 21.5639 354 32.8128 354 46.7359C354 60.744 350.206 72.29 342.618 81.374C335.031 90.458 324.288 95 310.392 95C303.316 95 296.964 93.7265 291.337 91.1796C285.71 88.6327 281.107 85.1095 277.526 80.6099C274.03 76.1104 271.345 70.9741 269.469 65.2011C267.679 59.4281 266.784 53.1881 266.784 46.4812C266.784 32.3034 270.705 21.0121 278.549 12.6072C286.478 4.20241 297.049 0 310.264 0ZM310.264 10.4424C300.118 10.4424 292.318 14.008 286.861 21.1394C281.49 28.1859 278.805 36.9303 278.805 47.3727C278.805 58.7489 281.661 67.8329 287.373 74.6247C293.17 81.3315 300.886 84.685 310.52 84.685C320.068 84.685 327.699 81.2891 333.411 74.4973C339.123 67.7055 341.979 58.664 341.979 47.3727C341.979 36.1662 339.08 27.2096 333.283 20.5027C327.571 13.7958 319.898 10.4424 310.264 10.4424Z" fill="#010F1D"/>
</svg>
