<svg width="279" height="99" viewBox="0 0 279 99" fill="none" xmlns="http://www.w3.org/2000/svg">
<path d="M71.2157 67.2222C70.3227 77.2222 66.8252 85.037 60.7231 90.6667C54.6955 96.2222 46.733 99 36.8357 99C25.5245 99 16.5575 95.2963 9.93448 87.8889C3.31149 80.4074 0 70.3333 0 57.6667C0 45.8148 3.31149 35.963 9.93448 28.1111C16.6319 20.1852 25.8594 16.2222 37.6171 16.2222C46.026 16.2222 53.4304 18.4815 59.8301 23C66.2299 27.5185 69.8018 33.7778 70.546 41.7778H60.0534C58.8627 36.5926 56.2582 32.5556 52.2397 29.6667C48.2213 26.7037 43.2727 25.2222 37.3938 25.2222C28.5384 25.2222 21.841 28.3333 17.3016 34.5556C12.8367 40.7778 10.6042 48.4444 10.6042 57.5556C10.6042 67.6296 12.9855 75.5555 17.7481 81.3333C22.5107 87.1111 29.0221 90 37.2822 90C44.054 90 49.4492 88.0741 53.4676 84.2222C57.486 80.2963 59.9045 74.6296 60.7231 67.2222H71.2157Z" fill="#89909F"/>
<path d="M138.377 18V27.1111H93.8395V51.8889H135.475V60.6667H93.8395V88H138.935V97.1111H83.3469V18H138.377Z" fill="#89909F"/>
<path d="M217.778 67.2222C216.885 77.2222 213.388 85.037 207.285 90.6667C201.258 96.2222 193.295 99 183.398 99C172.087 99 163.12 95.2963 156.497 87.8889C149.874 80.4074 146.562 70.3333 146.562 57.6667C146.562 45.8148 149.874 35.963 156.497 28.1111C163.194 20.1852 172.422 16.2222 184.179 16.2222C192.588 16.2222 199.993 18.4815 206.393 23C212.792 27.5185 216.364 33.7778 217.108 41.7778H206.616C205.425 36.5926 202.821 32.5556 198.802 29.6667C194.784 26.7037 189.835 25.2222 183.956 25.2222C175.101 25.2222 168.403 28.3333 163.864 34.5556C159.399 40.7778 157.167 48.4444 157.167 57.5556C157.167 67.6296 159.548 75.5555 164.31 81.3333C169.073 87.1111 175.584 90 183.845 90C190.616 90 196.012 88.0741 200.03 84.2222C204.048 80.2963 206.467 74.6296 207.285 67.2222H217.778Z" fill="#89909F"/>
<path d="M240.848 18V97.1111H230.356V18H240.848Z" fill="#89909F"/>
<path d="M268.619 18V97.1111H258.126V18H268.619ZM279 0V11.2222H268.954V0H279ZM257.903 0V11.2222H247.857V0H257.903Z" fill="#89909F"/>
<path d="M71.2157 67.2222C70.3227 77.2222 66.8252 85.037 60.7231 90.6667C54.6955 96.2222 46.733 99 36.8357 99C25.5245 99 16.5575 95.2963 9.93448 87.8889C3.31149 80.4074 0 70.3333 0 57.6667C0 45.8148 3.31149 35.963 9.93448 28.1111C16.6319 20.1852 25.8594 16.2222 37.6171 16.2222C46.026 16.2222 53.4304 18.4815 59.8301 23C66.2299 27.5185 69.8018 33.7778 70.546 41.7778H60.0534C58.8627 36.5926 56.2582 32.5556 52.2397 29.6667C48.2213 26.7037 43.2727 25.2222 37.3938 25.2222C28.5384 25.2222 21.841 28.3333 17.3016 34.5556C12.8367 40.7778 10.6042 48.4444 10.6042 57.5556C10.6042 67.6296 12.9855 75.5555 17.7481 81.3333C22.5107 87.1111 29.0221 90 37.2822 90C44.054 90 49.4492 88.0741 53.4676 84.2222C57.486 80.2963 59.9045 74.6296 60.7231 67.2222H71.2157Z" fill="#89909F"/>
<path d="M138.377 18V27.1111H93.8395V51.8889H135.475V60.6667H93.8395V88H138.935V97.1111H83.3469V18H138.377Z" fill="#89909F"/>
<path d="M217.778 67.2222C216.885 77.2222 213.388 85.037 207.285 90.6667C201.258 96.2222 193.295 99 183.398 99C172.087 99 163.12 95.2963 156.497 87.8889C149.874 80.4074 146.562 70.3333 146.562 57.6667C146.562 45.8148 149.874 35.963 156.497 28.1111C163.194 20.1852 172.422 16.2222 184.179 16.2222C192.588 16.2222 199.993 18.4815 206.393 23C212.792 27.5185 216.364 33.7778 217.108 41.7778H206.616C205.425 36.5926 202.821 32.5556 198.802 29.6667C194.784 26.7037 189.835 25.2222 183.956 25.2222C175.101 25.2222 168.403 28.3333 163.864 34.5556C159.399 40.7778 157.167 48.4444 157.167 57.5556C157.167 67.6296 159.548 75.5555 164.31 81.3333C169.073 87.1111 175.584 90 183.845 90C190.616 90 196.012 88.0741 200.03 84.2222C204.048 80.2963 206.467 74.6296 207.285 67.2222H217.778Z" fill="#89909F"/>
<path d="M240.848 18V97.1111H230.356V18H240.848Z" fill="#89909F"/>
<path d="M268.619 18V97.1111H258.126V18H268.619ZM279 0V11.2222H268.954V0H279ZM257.903 0V11.2222H247.857V0H257.903Z" fill="#89909F"/>
</svg>
