<svg width="33" height="29" viewBox="0 0 33 29" fill="none" xmlns="http://www.w3.org/2000/svg">
<path d="M32.055 0.317287C31.8779 0.162089 31.6625 0.0588725 31.4319 0.0187569C31.2013 -0.0213588 30.9643 0.00314725 30.7464 0.0896346L1.7952 11.5897C1.38489 11.7516 1.03752 12.0445 0.80538 12.4242C0.57324 12.8038 0.468895 13.2498 0.508055 13.6948C0.547214 14.1399 0.727758 14.56 1.02251 14.8919C1.31725 15.2239 1.71025 15.4496 2.14234 15.5352L9.64371 17.0301V25.52C9.64223 25.9824 9.77763 26.4346 10.0323 26.818C10.2871 27.2015 10.6493 27.4984 11.0723 27.6703C11.4945 27.8454 11.9589 27.8874 12.405 27.7909C12.8511 27.6945 13.2583 27.464 13.5737 27.1295L17.1908 23.3217L22.9293 28.42C23.3434 28.7927 23.8773 28.999 24.4307 29C24.6733 28.9998 24.9143 28.9612 25.145 28.8854C25.5221 28.764 25.8612 28.5444 26.1287 28.2485C26.3961 27.9527 26.5825 27.5908 26.6693 27.1991L32.4678 1.59475C32.5197 1.36383 32.5087 1.12294 32.436 0.897901C32.3632 0.67286 32.2315 0.47215 32.055 0.317287ZM23.3208 5.53733L10.5223 14.8406L3.43661 13.4298L23.3208 5.53733ZM11.9294 25.52V18.6353L15.4708 21.7876L11.9294 25.52ZM24.4336 26.68L12.6223 16.1674L29.6221 3.80022L24.4336 26.68Z" fill="#5E4AE3"/>
</svg>
