<svg width="89" height="89" viewBox="0 0 89 89" fill="none" xmlns="http://www.w3.org/2000/svg">
<rect width="89" height="89" rx="44.5" fill="white"/>
<path d="M60.055 30.3173C59.8779 30.1621 59.6625 30.0589 59.4319 30.0188C59.2013 29.9786 58.9643 30.0031 58.7464 30.0896L29.7952 41.5897C29.3849 41.7516 29.0375 42.0445 28.8054 42.4242C28.5732 42.8038 28.4689 43.2498 28.5081 43.6948C28.5472 44.1399 28.7278 44.56 29.0225 44.8919C29.3173 45.2239 29.7103 45.4496 30.1423 45.5352L37.6437 47.0301V55.52C37.6422 55.9824 37.7776 56.4346 38.0323 56.818C38.2871 57.2015 38.6493 57.4984 39.0723 57.6703C39.4945 57.8454 39.9589 57.8874 40.405 57.7909C40.8511 57.6945 41.2583 57.464 41.5737 57.1295L45.1908 53.3217L50.9293 58.42C51.3434 58.7927 51.8773 58.999 52.4307 59C52.6733 58.9998 52.9143 58.9612 53.145 58.8854C53.5221 58.764 53.8612 58.5444 54.1287 58.2485C54.3961 57.9527 54.5825 57.5908 54.6693 57.1991L60.4678 31.5947C60.5197 31.3638 60.5087 31.1229 60.436 30.8979C60.3632 30.6729 60.2315 30.4721 60.055 30.3173ZM51.3208 35.5373L38.5223 44.8406L31.4366 43.4298L51.3208 35.5373ZM39.9294 55.52V48.6353L43.4708 51.7876L39.9294 55.52ZM52.4336 56.68L40.6223 46.1674L57.6221 33.8002L52.4336 56.68Z" fill="#5E4AE3"/>
</svg>
