<svg width="306" height="227" viewBox="0 0 306 227" fill="none" xmlns="http://www.w3.org/2000/svg">
<path d="M0 0H38.9108C47.2733 0 54.1851 1.83802 59.6462 5.51406C65.1927 9.1901 67.966 14.9606 67.966 22.8256C67.966 27.3566 66.7287 31.4173 64.2541 35.0079C61.8648 38.5129 58.6223 40.9921 54.5264 42.4454C60.1582 43.7278 64.4674 46.378 67.454 50.396C70.5259 54.4139 72.0619 59.4578 72.0619 65.5276C72.0619 82.7109 60.5422 91.3026 37.5029 91.3026H0V0ZM11.7756 10.2587V39.1114H33.407C35.8816 39.1114 37.9722 39.0686 39.6788 38.9831C41.4708 38.8121 43.476 38.4702 45.6946 37.9573C47.9132 37.4443 49.6625 36.7177 50.9425 35.7773C52.3078 34.7514 53.4597 33.2981 54.3984 31.4173C55.4224 29.5366 55.9343 27.2711 55.9343 24.6209C55.9343 21.9708 55.5077 19.748 54.6544 17.9528C53.8011 16.072 52.7771 14.6614 51.5825 13.721C50.3878 12.6952 48.7239 11.9258 46.5906 11.4128C44.5427 10.8999 42.6654 10.6007 40.9588 10.5152C39.3375 10.3442 37.2042 10.2587 34.559 10.2587H11.7756ZM11.7756 48.6007V81.1721H35.8389C38.8255 81.1721 41.2574 81.1294 43.1347 81.0439C45.012 80.8729 47.1026 80.4882 49.4065 79.8898C51.7958 79.2913 53.6731 78.4364 55.0384 77.3251C56.4037 76.1282 57.5556 74.4612 58.4943 72.324C59.4329 70.1012 59.9022 67.4511 59.9022 64.3734C59.9022 61.8088 59.5609 59.5861 58.8783 57.7053C58.2809 55.8245 57.2143 54.3285 55.6783 53.2171C54.2277 52.1057 52.8198 51.2081 51.4545 50.5242C50.1745 49.8403 48.2972 49.3701 45.8226 49.1136C43.348 48.8571 41.4281 48.7289 40.0628 48.7289C38.6975 48.6434 36.6069 48.6007 33.791 48.6007H11.7756Z" fill="#010F1D"/>
<path d="M100.166 0V91.3026H88.1344V0H100.166Z" fill="#010F1D"/>
<path d="M201 114H189.352V91.3026H123.434V114H111.787V80.7874H120.746C124.245 74.5467 127.104 65.613 129.322 53.9865C131.541 42.2745 132.65 30.1777 132.65 17.6963V0H190.888V80.7874H201V114ZM178.857 80.7874V10.5152H144.426V22.9539C144.426 33.982 143.402 44.9246 141.354 55.7818C139.391 66.5534 136.959 74.8886 134.058 80.7874H178.857Z" fill="#010F1D"/>
<path d="M12.0392 224.831H0V134H59.9398V144.461H12.0392V224.831Z" fill="#89909F"/>
<path d="M93.0957 201.103L59.7958 134H72.9876L99.6276 189.366L125.755 134H138.691L103.214 206.333C99.5422 213.818 95.7426 219.133 91.8149 222.28C87.9726 225.427 83.7034 227 79.0072 227C74.9088 227 71.1519 226.235 67.7365 224.704V214.498C70.2127 216.029 73.628 216.794 77.9826 216.794C83.0203 216.794 87.5457 212.627 91.5587 204.292L93.0957 201.103Z" fill="#89909F"/>
<path d="M222.367 134L183.944 170.486L223.904 224.831H208.535L175.491 178.65L160.378 192.938V224.831H148.339V134H160.378V179.033L206.614 134H222.367Z" fill="#89909F"/>
<path d="M233.765 224.831V134H245.804V210.926H246.06L290.759 134H306V224.831H293.961V147.65H293.705L248.878 224.831H233.765Z" fill="#89909F"/>
</svg>
