<svg width="452" height="96" viewBox="0 0 452 96" fill="none" xmlns="http://www.w3.org/2000/svg">
<path d="M73.1852 67.0456C73.1852 70.0483 72.5029 73.1796 71.1381 76.4397C69.7733 79.6139 67.7689 82.7024 65.1246 85.7051C62.4804 88.7078 58.77 91.1528 53.9933 93.0402C49.2166 94.9276 43.8003 95.8713 37.7441 95.8713C26.3143 95.8713 17.1448 93.1689 10.2357 87.7641C3.4119 82.2735 0 74.2091 0 63.571H11.6431C11.899 71.378 14.5006 77.0831 19.4478 80.6863C24.3951 84.2038 30.835 85.9625 38.7677 85.9625C45.165 85.9625 50.4961 84.2038 54.761 80.6863C59.0259 77.1689 61.1583 72.5362 61.1583 66.7882C61.1583 63.6139 60.5612 60.9115 59.3671 58.681C58.1729 56.4504 56.4243 54.7775 54.1213 53.6622C51.8182 52.5469 49.3872 51.7748 46.8283 51.3458C44.3547 50.9169 41.4546 50.7024 38.128 50.7024C35.2279 50.7024 32.4983 50.7882 29.9394 50.9598V40.9223C31.3042 41.0938 34.0337 41.1796 38.128 41.1796C51.3491 41.1796 57.9596 35.689 57.9596 24.7078C57.9596 14.9276 51.4344 10.0375 38.3839 10.0375C24.5657 10.0375 17.0168 16.2574 15.7374 28.6971H4.09428C4.43547 19.26 7.76207 12.1394 14.0741 7.33512C20.3861 2.44504 28.6173 0 38.7677 0C48.0651 0 55.5713 2.05898 61.2862 6.17694C67.0865 10.2949 69.9866 16.4719 69.9866 24.7078C69.9866 29.3405 68.4939 33.5442 65.5085 37.319C62.5231 41.008 58.9832 43.4531 54.8889 44.6542V45.0402C60.6892 46.1555 65.1673 48.7721 68.3233 52.8901C71.5646 57.008 73.1852 61.7265 73.1852 67.0456Z" fill="#010F1D"/>
<path d="M126.595 2.18767L162.164 93.8123H148.729L138.622 65.7587H100.366L90.0022 93.8123H77.2075L113.032 2.18767H126.595ZM135.039 56.1072L119.558 13.7694L103.82 56.1072H135.039Z" fill="#010F1D"/>
<path d="M171.432 2.18767H188.065L217.365 79.7855L245.641 2.18767H262.402V93.8123H251.014V17.3727L222.482 93.8123H211.991L182.947 17.3727V93.8123H171.432V2.18767Z" fill="#010F1D"/>
<path d="M321.141 0C334.959 0 345.707 4.37534 353.383 13.126C361.06 21.7909 364.899 33.1582 364.899 47.2279C364.899 61.3834 361.103 73.0509 353.511 82.2306C345.92 91.4102 335.172 96 321.269 96C314.189 96 307.835 94.7131 302.205 92.1394C296.575 89.5657 291.969 86.0054 288.387 81.4584C284.89 76.9115 282.203 71.7212 280.326 65.8874C278.535 60.0536 277.639 53.748 277.639 46.9705C277.639 32.6434 281.563 21.2332 289.41 12.7399C297.343 4.24665 307.92 0 321.141 0ZM321.141 10.5523C310.991 10.5523 303.186 14.1555 297.727 21.3619C292.353 28.4826 289.666 37.319 289.666 47.8713C289.666 59.3673 292.524 68.5469 298.239 75.4102C304.039 82.1877 311.758 85.5764 321.397 85.5764C330.95 85.5764 338.584 82.1448 344.299 75.2815C350.014 68.4182 352.872 59.2815 352.872 47.8713C352.872 36.5469 349.972 27.496 344.171 20.7185C338.456 13.941 330.78 10.5523 321.141 10.5523Z" fill="#010F1D"/>
<path d="M379.966 2.18767H418.862C427.221 2.18767 434.13 4.03217 439.589 7.72118C445.134 11.4102 447.906 17.2011 447.906 25.0938C447.906 29.6407 446.669 33.7158 444.195 37.319C441.807 40.8365 438.566 43.3244 434.471 44.7828C440.101 46.0697 444.409 48.7292 447.394 52.7614C450.465 56.7936 452 61.8552 452 67.9464C452 85.1903 440.485 93.8123 417.455 93.8123H379.966V2.18767ZM391.737 12.4826V41.437H413.36C415.834 41.437 417.924 41.3941 419.63 41.3083C421.421 41.1367 423.425 40.7936 425.643 40.2788C427.861 39.7641 429.609 39.0349 430.889 38.0912C432.254 37.0617 433.405 35.6032 434.343 33.7158C435.367 31.8284 435.879 29.555 435.879 26.8954C435.879 24.2359 435.452 22.0054 434.599 20.2038C433.746 18.3164 432.723 16.9008 431.529 15.9571C430.334 14.9276 428.671 14.1555 426.539 13.6408C424.492 13.126 422.615 12.8257 420.909 12.7399C419.288 12.5684 417.156 12.4826 414.512 12.4826H391.737ZM391.737 50.9598V83.6461H415.791C418.777 83.6461 421.208 83.6032 423.084 83.5174C424.961 83.3458 427.051 82.9598 429.354 82.3593C431.742 81.7587 433.618 80.9008 434.983 79.7855C436.348 78.5844 437.499 76.9115 438.438 74.7668C439.376 72.5362 439.845 69.8767 439.845 66.7882C439.845 64.2145 439.504 61.9839 438.822 60.0965C438.224 58.2091 437.158 56.7078 435.623 55.5925C434.173 54.4772 432.765 53.5764 431.401 52.8901C430.121 52.2038 428.245 51.7319 425.771 51.4745C423.297 51.2172 421.378 51.0885 420.013 51.0885C418.649 51.0027 416.559 50.9598 413.744 50.9598H391.737Z" fill="#010F1D"/>
</svg>
